<svg id="visual" viewBox="0 0 900 600" width="900" height="600" xmlns="http://www.w3.org/2000/svg" xmlns:xlink="http://www.w3.org/1999/xlink" version="1.1"><rect x="0" y="0" width="900" height="600" fill="#44475a"></rect><path d="M547 600L459 600L459 514L546 514L546 429L434 429L434 343L473 343L473 257L511 257L511 171L559 171L559 86L576 86L576 0L900 0L900 86L900 86L900 171L900 171L900 257L900 257L900 343L900 343L900 429L900 429L900 514L900 514L900 600L900 600Z" fill="#f9c7e4"></path><path d="M630 600L608 600L608 514L692 514L692 429L677 429L677 343L533 343L533 257L699 257L699 171L619 171L619 86L550 86L550 0L900 0L900 86L900 86L900 171L900 171L900 257L900 257L900 343L900 343L900 429L900 429L900 514L900 514L900 600L900 600Z" fill="#fda2d6"></path><path d="M707 600L668 600L668 514L671 514L671 429L728 429L728 343L722 343L722 257L686 257L686 171L743 171L743 86L803 86L803 0L900 0L900 86L900 86L900 171L900 171L900 257L900 257L900 343L900 343L900 429L900 429L900 514L900 514L900 600L900 600Z" fill="#ff79c6"></path></svg>