<svg id="visual" viewBox="0 0 900 600" width="900" height="600" xmlns="http://www.w3.org/2000/svg" xmlns:xlink="http://www.w3.org/1999/xlink" version="1.1"><rect x="0" y="0" width="900" height="600" fill="#282a36"></rect><path d="M355 0L443 0L443 86L356 86L356 171L468 171L468 257L429 257L429 343L391 343L391 429L343 429L343 514L326 514L326 600L0 600L0 514L0 514L0 429L0 429L0 343L0 343L0 257L0 257L0 171L0 171L0 86L0 86L0 0L0 0Z" fill="#9f62f5"></path><path d="M272 0L294 0L294 86L210 86L210 171L225 171L225 257L369 257L369 343L203 343L203 429L283 429L283 514L352 514L352 600L0 600L0 514L0 514L0 429L0 429L0 343L0 343L0 257L0 257L0 171L0 171L0 86L0 86L0 0L0 0Z" fill="#ae7bf7"></path><path d="M195 0L234 0L234 86L231 86L231 171L174 171L174 257L180 257L180 343L216 343L216 429L159 429L159 514L99 514L99 600L0 600L0 514L0 514L0 429L0 429L0 343L0 343L0 257L0 257L0 171L0 171L0 86L0 86L0 0L0 0Z" fill="#bd93f9"></path></svg>