<svg xmlns="http://www.w3.org/2000/svg" viewBox="0 0 201 62.55"><defs><style>.cls-1{fill:#50fa7b;}.cls-2{fill:#bd93f9;}</style></defs><g id="Capa_1" data-name="Capa 1"><path class="cls-1" d="M353.39,292.07c-1.88,0-3.41-9-3.41-20v-9.43c0-11,1.53-20,3.41-20s3.41,9,3.41,20v9.43C356.8,283.07,355.27,292.07,353.39,292.07Zm14.14,0c-7.45,0-13.55-1.75-13.55-3.89s6.1-3.9,13.55-3.9,13.56,1.75,13.56,3.9S375,292.07,367.53,292.07Z" transform="translate(-313 -230.85)"/><path class="cls-1" d="M397.6,293q-7.78,0-12-5t-4.26-14.43q0-9.16,3.61-14.24a11.76,11.76,0,0,1,10.18-5.08,11.51,11.51,0,0,1,9.8,4.65c2.31,3.1,3.47,7.61,3.47,13.5v1.72c-.1,1.71-5.08,3.11-11.07,3.11s-10.91-1.41-10.91-3.13S389.81,271,394,271s7.37-2.26,7.05-5l-1.14-1.53a5.6,5.6,0,0,0-4.76-2.29A5.85,5.85,0,0,0,390,265c-1.24,1.93-1.85,4.67-1.85,8.21q0,5.76,2.65,8.76a9.51,9.51,0,0,0,7.53,3,28.3,28.3,0,0,0,3.93-.27l1.28-.17c1.46-.3,2.81,1.26,3,3.47a4.36,4.36,0,0,1-3.23,4.71l-1.55.12C400.17,293,398.8,293,397.6,293Z" transform="translate(-313 -230.85)"/><path class="cls-1" d="M439.21,293c-2.55,0-6.73-3.73-9.3-8.28s-7.8-13.29-11.63-19.4-4.88-11.1-2.33-11.1,6.76,3.87,9.36,8.61,7.83,13.47,11.63,19.4S441.75,293,439.21,293ZM416,293c-2.55,0-1.53-4.85,2.27-10.77s9-14.66,11.63-19.4,6.81-8.61,9.36-8.61,1.41,5-2.53,11.1-9.17,14.84-11.63,19.4S418.5,293,416,293Z" transform="translate(-313 -230.85)"/><path class="cls-2" d="M452.6,293.4c-2.29,0-.68-8.29,3.59-18.43L467,249.29c4.26-10.14,9.63-18.44,11.93-18.44s.69,8.3-3.58,18.43L464.52,275C460.26,285.11,454.89,293.4,452.6,293.4Z" transform="translate(-313 -230.85)"/><path class="cls-2" d="M498.93,285.3c-8.3,5.5-15.08,7.07-15.08,3.48s4.95-9.41,11-12.92,11-6.61,11-6.86-5-3.35-11-6.86-11-9.33-11-12.92,6.78-2,15.08,3.47S514,265.53,514,269,507.22,279.8,498.93,285.3Z" transform="translate(-313 -230.85)"/><path class="cls-2" d="M328.07,285.3C319.78,279.8,313,272.46,313,269s6.78-10.81,15.08-16.31,15.07-7.06,15.07-3.47-4.95,9.4-11,12.92-11,6.6-11,6.86,5,3.34,11,6.86,11,9.33,11,12.92S336.37,290.8,328.07,285.3Z" transform="translate(-313 -230.85)"/></g></svg>